<?xml version="1.0" encoding="utf-8"?>
<!-- Generator: Adobe Illustrator 21.1.0, SVG Export Plug-In . SVG Version: 6.00 Build 0)  -->
<svg version="1.1" id="Calque_1" xmlns="http://www.w3.org/2000/svg" xmlns:xlink="http://www.w3.org/1999/xlink" x="0px" y="0px"
	 viewBox="0 0 17.8 17.8" style="enable-background:new 0 0 17.8 17.8;" xml:space="preserve">
<style type="text/css">
	.st0{fill:#573ECB;}
</style>
<title>projet</title>
<g id="Calque_2">
	<g id="Calque_1-2">
		<path class="st0" d="M8.9,0C4,0,0,4,0,8.9s4,8.9,8.9,8.9s8.9-4,8.9-8.9S13.8,0,8.9,0z M8.9,17.3c-4.7,0-8.4-3.8-8.4-8.4
			s3.8-8.4,8.4-8.4s8.4,3.8,8.4,8.4C17.3,13.6,13.6,17.3,8.9,17.3z"/>
		<path class="st0" d="M10.2,10.6c1.5-1.4,1.5-3.7,0.1-5.1S6.7,4,5.2,5.3S3.7,9,5.1,10.5C6.3,11.8,8.4,12,9.8,11l3.1,3.7
			c0.1,0.1,0.3,0.1,0.4,0c0.1-0.1,0.1-0.2,0-0.3L10.2,10.6z M4.5,8c0-1.8,1.4-3.2,3.2-3.2s3.2,1.4,3.2,3.2s-1.4,3.2-3.2,3.2
			S4.5,9.7,4.5,8L4.5,8z"/>
	</g>
</g>
</svg>
