<?xml version="1.0" encoding="utf-8"?>
<!-- Generator: Adobe Illustrator 21.1.0, SVG Export Plug-In . SVG Version: 6.00 Build 0)  -->
<svg version="1.1" id="Calque_1" xmlns="http://www.w3.org/2000/svg" xmlns:xlink="http://www.w3.org/1999/xlink" x="0px" y="0px"
	 viewBox="0 0 17.8 17.8" style="enable-background:new 0 0 17.8 17.8;" xml:space="preserve">
<style type="text/css">
	.st0{fill:#573ECB;}
</style>
<title>scroll-down</title>
<g id="Calque_2">
	<g id="Calque_1-2">
		<path class="st0" d="M8.9,0C4,0,0,4,0,8.9s4,8.9,8.9,8.9s8.9-4,8.9-8.9C17.8,4,13.8,0,8.9,0z M8.9,17.3c-4.7,0-8.4-3.8-8.4-8.4
			s3.8-8.4,8.4-8.4s8.4,3.8,8.4,8.4C17.3,13.6,13.6,17.3,8.9,17.3z"/>
		<path class="st0" d="M11.6,10.3L9.2,13V4.1c0-0.1-0.1-0.2-0.2-0.2S8.7,4,8.7,4.1V13l-2.4-2.7c-0.1-0.1-0.3-0.1-0.4,0
			c-0.1,0.1-0.1,0.2,0,0.3l2.9,3.2l0,0C8.8,14,9,14,9.1,13.9l0,0l2.9-3.2c0.1-0.1,0-0.3-0.1-0.3C11.8,10.2,11.7,10.2,11.6,10.3
			L11.6,10.3z"/>
	</g>
</g>
</svg>
