<svg xmlns="http://www.w3.org/2000/svg" xmlns:xlink="http://www.w3.org/1999/xlink" width="557" height="161" viewBox="0 0 557 161">
    <defs>
        <path id="b" d="M26.824 31.74h7.351v7.351h-7.351z"/>
        <filter id="a" width="208.8%" height="208.8%" x="-40.8%" y="-27.2%" filterUnits="objectBoundingBox">
            <feOffset dx="1" dy="2" in="SourceAlpha" result="shadowOffsetOuter1"/>
            <feGaussianBlur in="shadowOffsetOuter1" result="shadowBlurOuter1" stdDeviation="1"/>
            <feColorMatrix in="shadowBlurOuter1" values="0 0 0 0 0.409948049 0 0 0 0 0.44782962 0 0 0 0 0.759624094 0 0 0 0.65433785 0"/>
        </filter>
        <path id="d" d="M257.207 31.74h7.351v7.351h-7.351z"/>
        <filter id="c" width="208.8%" height="208.8%" x="-40.8%" y="-27.2%" filterUnits="objectBoundingBox">
            <feOffset dx="1" dy="2" in="SourceAlpha" result="shadowOffsetOuter1"/>
            <feGaussianBlur in="shadowOffsetOuter1" result="shadowBlurOuter1" stdDeviation="1"/>
            <feColorMatrix in="shadowBlurOuter1" values="0 0 0 0 0.409948049 0 0 0 0 0.44782962 0 0 0 0 0.759624094 0 0 0 0.65433785 0"/>
        </filter>
        <path id="f" d="M26.824 74.74h7.351v7.351h-7.351z"/>
        <filter id="e" width="208.8%" height="208.8%" x="-40.8%" y="-27.2%" filterUnits="objectBoundingBox">
            <feOffset dx="1" dy="2" in="SourceAlpha" result="shadowOffsetOuter1"/>
            <feGaussianBlur in="shadowOffsetOuter1" result="shadowBlurOuter1" stdDeviation="1"/>
            <feColorMatrix in="shadowBlurOuter1" values="0 0 0 0 0.409948049 0 0 0 0 0.44782962 0 0 0 0 0.759624094 0 0 0 0.65433785 0"/>
        </filter>
        <path id="h" d="M487.824 74.74h7.351v7.351h-7.351z"/>
        <filter id="g" width="208.8%" height="208.8%" x="-40.8%" y="-27.2%" filterUnits="objectBoundingBox">
            <feOffset dx="1" dy="2" in="SourceAlpha" result="shadowOffsetOuter1"/>
            <feGaussianBlur in="shadowOffsetOuter1" result="shadowBlurOuter1" stdDeviation="1"/>
            <feColorMatrix in="shadowBlurOuter1" values="0 0 0 0 0.409948049 0 0 0 0 0.44782962 0 0 0 0 0.759624094 0 0 0 0.65433785 0"/>
        </filter>
        <path id="j" d="M487.707 31.74h7.351v7.351h-7.351z"/>
        <filter id="i" width="208.8%" height="208.8%" x="-40.8%" y="-27.2%" filterUnits="objectBoundingBox">
            <feOffset dx="1" dy="2" in="SourceAlpha" result="shadowOffsetOuter1"/>
            <feGaussianBlur in="shadowOffsetOuter1" result="shadowBlurOuter1" stdDeviation="1"/>
            <feColorMatrix in="shadowBlurOuter1" values="0 0 0 0 0.409948049 0 0 0 0 0.44782962 0 0 0 0 0.759624094 0 0 0 0.65433785 0"/>
        </filter>
        <path id="l" d="M26.824 117.74h7.351v7.351h-7.351z"/>
        <filter id="k" width="208.8%" height="208.8%" x="-40.8%" y="-27.2%" filterUnits="objectBoundingBox">
            <feOffset dx="1" dy="2" in="SourceAlpha" result="shadowOffsetOuter1"/>
            <feGaussianBlur in="shadowOffsetOuter1" result="shadowBlurOuter1" stdDeviation="1"/>
            <feColorMatrix in="shadowBlurOuter1" values="0 0 0 0 0.409948049 0 0 0 0 0.44782962 0 0 0 0 0.759624094 0 0 0 0.65433785 0"/>
        </filter>
        <path id="n" d="M257.207 117.74h7.351v7.351h-7.351z"/>
        <filter id="m" width="208.8%" height="208.8%" x="-40.8%" y="-27.2%" filterUnits="objectBoundingBox">
            <feOffset dx="1" dy="2" in="SourceAlpha" result="shadowOffsetOuter1"/>
            <feGaussianBlur in="shadowOffsetOuter1" result="shadowBlurOuter1" stdDeviation="1"/>
            <feColorMatrix in="shadowBlurOuter1" values="0 0 0 0 0.409948049 0 0 0 0 0.44782962 0 0 0 0 0.759624094 0 0 0 0.65433785 0"/>
        </filter>
        <path id="p" d="M487.707 117.74h7.351v7.351h-7.351z"/>
        <filter id="o" width="208.8%" height="208.8%" x="-40.8%" y="-27.2%" filterUnits="objectBoundingBox">
            <feOffset dx="1" dy="2" in="SourceAlpha" result="shadowOffsetOuter1"/>
            <feGaussianBlur in="shadowOffsetOuter1" result="shadowBlurOuter1" stdDeviation="1"/>
            <feColorMatrix in="shadowBlurOuter1" values="0 0 0 0 0.409948049 0 0 0 0 0.44782962 0 0 0 0 0.759624094 0 0 0 0.65433785 0"/>
        </filter>
    </defs>
    <g fill="none" fill-rule="evenodd" transform="translate(0 1.085)">
        <path fill="#FFF" fill-opacity=".349" fill-rule="nonzero" d="M30 34.915h462v87H30v-87zm1 1v85h460v-85H31z"/>
        <path fill="#AAB2F8" fill-rule="nonzero" d="M26.466 34.915h-3.5v1h4v-1h-.5zm-6 0h-3.5v1h4v-1h-.5zm-6 0h-3.5v1h4v-1h-.5zm-6 0h-3.5v1h4v-1h-.5zm-6 0H.634v1h2.332v-1h-.5zM26.466 120.915h-3.5v1h4v-1h-.5zm-6 0h-3.5v1h4v-1h-.5zm-6 0h-3.5v1h4v-1h-.5zm-6 0h-3.5v1h4v-1h-.5zm-6 0H.634v1h2.332v-1h-.5zM521 34.915h-3.5v1h4v-1h-.5zm-6 0h-3.5v1h4v-1h-.5zm-6 0h-3.5v1h4v-1h-.5zm-6 0h-3.5v1h4v-1h-.5zm-6 0h-1.833v1h2.332v-1h-.5zM490.882 8.082v3.5h1v-4h-1v.5zm0 6v3.5h1v-4h-1v.5zm0 6v3.5h1v-4h-1v.5zm0 6v3.5h1v-4h-1v.5zM30 8.082v3.5h1v-4h-1v.5zm0 6v3.5h1v-4h-1v.5zm0 6v3.5h1v-4h-1v.5zm0 6v3.5h1v-4h-1v.5zM260.382.337v3.5h1v-4h-1v.5zm0 6v3.5h1v-4h-1v.5zm0 6v3.5h1v-4h-1v.5zm0 6v3.5h1v-4h-1v.5zm0 6v3.5h1v-4h-1v.5zm0 6v3.5h1v-4h-1v.5zm0 6v3.5h1v-4h-1v.5zm0 6v3.5h1v-4h-1v.5zm0 6v3.5h1v-4h-1v.5zm0 6v3.5h1v-4h-1v.5zm0 6v3.5h1v-4h-1v.5zm0 6v3.5h1v-4h-1v.5zm0 6v3.5h1v-4h-1v.5zm0 6v3.5h1v-4h-1v.5zm0 6v3.5h1v-4h-1v.5zm0 6v3.5h1v-4h-1v.5zm0 6v3.5h1v-4h-1v.5zm0 6v3.5h1v-4h-1v.5zm0 6v3.5h1v-4h-1v.5zm0 6v3.5h1v-4h-1v.5zm0 6v3.5h1v-4h-1v.5zm0 6v3.5h1v-4h-1v.5zm0 6v3.5h1v-4h-1v.5zm0 6v3.5h1v-4h-1v.5zm0 6v3.5h1v-4h-1v.5zm0 6v3.5h1v-4h-1v.5zm0 6v3.5h1v-4h-1v.5z"/>
        <path fill="#FFBAC7" fill-rule="nonzero" d="M75.097 94.215l8.3-28.8-6-19.1h-5.7v-1.9h31v1.9h-5.9l14.9 47.3 12-47.3h-10.1v-1.9h20v1.9h-6.6l-18.4 69.1h-8.9l-14.8-45.2-13 45.2h-8.7l-25.2-69.1h-4.7v-1.9h32.5v1.9h-7l16.3 47.9zm76.756 21.2c-8.6 0-15.05-2.216-19.35-6.65-4.3-4.433-6.45-10.6-6.45-18.5s2.417-13.95 7.25-18.15c4.834-4.2 10.984-6.3 18.45-6.3 15.134 0 22.4 7.6 21.8 22.8h-28.2v3.9c0 6.534.834 11.467 2.5 14.8 1.667 3.333 4.567 5 8.7 5 7.734 0 12.8-4.133 15.2-12.4l1.8.3c-1.266 4.8-3.55 8.533-6.85 11.2s-8.25 4-14.85 4zm-6.4-28.8h10.3v-4.9c0-5.4-.316-9.083-.95-11.05-.633-1.967-1.9-2.95-3.8-2.95s-3.3 1.05-4.2 3.15c-.9 2.1-1.35 5.717-1.35 10.85v4.9zm29.657-47.2h24.5v73.2h5.6v1.8h-29.7v-1.8h5.5v-71.4h-5.9v-1.8zm58.356 28.2c-2.934 0-5.034 1.6-6.3 4.8-1.267 3.2-1.9 8.5-1.9 15.9v5.2c0 6.6.733 11.333 2.2 14.2 1.466 2.867 4.166 4.3 8.1 4.3 3.933 0 7.066-1.333 9.4-4 2.333-2.667 3.833-5.7 4.5-9.1l1.8.2c-1.267 5.734-3.6 9.867-7 12.4-3.467 2.6-8.234 3.9-14.3 3.9-7.734 0-13.667-2.083-17.8-6.25-4.134-4.167-6.2-10.266-6.2-18.3 0-8.033 2.35-14.216 7.05-18.55 4.7-4.333 11.25-6.5 19.65-6.5 5.933 0 10.466 1.15 13.6 3.45 3.133 2.3 4.7 5.183 4.7 8.65 0 3.467-.75 6-2.25 7.6-1.5 1.6-3.567 2.4-6.2 2.4-2.634 0-4.75-.7-6.35-2.1-1.6-1.4-2.4-3.467-2.4-6.2 0-1.2.166-2.4.5-3.6h3.3c.466-1.333.7-2.533.7-3.6 0-3.2-1.6-4.8-4.8-4.8zm50.956 27.1v-8.5c0-6.467-.35-11.183-1.05-14.15-.7-2.967-2.317-4.45-4.85-4.45-1.467 0-2.65.417-3.55 1.25-.9.833-1.55 2.217-1.95 4.15-.6 3-.9 7.567-.9 13.7v7.8c0 7.267.217 11.633.65 13.1.433 1.467.883 2.667 1.35 3.6.733 1.6 2.167 2.4 4.3 2.4 2.6 0 4.3-1.5 5.1-4.5.6-2.133.9-6.933.9-14.4zm-6.2 20.7c-8.333 0-14.633-2.133-18.9-6.4-4.267-4.267-6.4-10.383-6.4-18.35 0-7.967 2.283-14.1 6.85-18.4 4.567-4.3 10.983-6.45 19.25-6.45s14.433 1.983 18.5 5.95 6.1 10.017 6.1 18.15c0 17-8.467 25.5-25.4 25.5zm26.556-48.6h24.1v9.2c2.2-6.8 7.05-10.2 14.55-10.2 7.5 0 12.05 3.6 13.65 10.8 2.333-7.2 7.233-10.8 14.7-10.8 9.8 0 14.7 5.567 14.7 16.7v30.1h5.6v1.8h-27.7v-1.8h3.5v-32.5c0-5.067-.433-8.033-1.3-8.9-.4-.4-.933-.6-1.6-.6-1.933 0-3.633 1.3-5.1 3.9-1.467 2.6-2.2 5.9-2.2 9.9v28.2h3.6v1.8h-25.7v-1.8h3.5v-32.5c0-5.067-.433-8.033-1.3-8.9-.4-.4-.933-.6-1.6-.6-1.867 0-3.55 1.417-5.05 4.25s-2.25 6.217-2.25 10.15v27.6h3.6v1.8h-27.7v-1.8h5.5v-44h-5.5v-1.8zm113.456 48.6c-8.6 0-15.05-2.216-19.35-6.65-4.3-4.433-6.45-10.6-6.45-18.5s2.417-13.95 7.25-18.15c4.834-4.2 10.984-6.3 18.45-6.3 15.134 0 22.4 7.6 21.8 22.8h-28.2v3.9c0 6.534.834 11.467 2.5 14.8 1.667 3.333 4.567 5 8.7 5 7.734 0 12.8-4.133 15.2-12.4l1.8.3c-1.266 4.8-3.55 8.533-6.85 11.2s-8.25 4-14.85 4zm-6.4-28.8h10.3v-4.9c0-5.4-.316-9.083-.95-11.05-.633-1.967-1.9-2.95-3.8-2.95s-3.3 1.05-4.2 3.15c-.9 2.1-1.35 5.717-1.35 10.85v4.9zm63.213 10v-8.6c0-5.733-1.084-12.55-3.25-20.45-2.167-7.9-3.25-13.283-3.25-16.15 0-2.867.783-4.933 2.35-6.2 1.566-1.267 3.483-1.9 5.75-1.9 5.066 0 7.6 2.7 7.6 8.1 0 3.133-1.167 8.6-3.5 16.4-2.334 7.8-3.5 14.567-3.5 20.3v8.5h-2.2zm.7 18.8c-2.467 0-4.317-.717-5.55-2.15-1.234-1.433-1.85-3.233-1.85-5.4 0-2.167.666-3.967 2-5.4 1.333-1.433 3.166-2.15 5.5-2.15 2.333 0 4.2.617 5.6 1.85 1.4 1.233 2.1 3.05 2.1 5.45 0 2.4-.667 4.3-2 5.7-1.334 1.4-3.267 2.1-5.8 2.1z"/>
        <path fill="#AAB2F8" fill-rule="nonzero" d="M490.882 125.852v3.5h1v-4h-1v.5zm0 6v3.5h1v-4h-1v.5zm0 6v3.5h1v-4h-1v.5zm0 6v3.5h1v-4h-1v.5zM30 125.852v3.5h1v-4h-1v.5zm0 6v3.5h1v-4h-1v.5zm0 6v3.5h1v-4h-1v.5zm0 6v3.5h1v-4h-1v.5z"/>
        <path stroke="#AAB2F8" stroke-dasharray="3" stroke-linecap="square" d="M521 121.415h-25.333"/>
        <use fill="#000" filter="url(#a)" xlink:href="#b"/>
        <use fill="#FFF" xlink:href="#b"/>
        <use fill="#000" filter="url(#c)" xlink:href="#d"/>
        <use fill="#FFF" xlink:href="#d"/>
        <use fill="#000" filter="url(#e)" xlink:href="#f"/>
        <use fill="#FFF" xlink:href="#f"/>
        <use fill="#000" filter="url(#g)" xlink:href="#h"/>
        <use fill="#FFF" xlink:href="#h"/>
        <use fill="#000" filter="url(#i)" xlink:href="#j"/>
        <use fill="#FFF" xlink:href="#j"/>
        <use fill="#000" filter="url(#k)" xlink:href="#l"/>
        <use fill="#FFF" xlink:href="#l"/>
        <g>
            <use fill="#000" filter="url(#m)" xlink:href="#n"/>
            <use fill="#FFF" xlink:href="#n"/>
        </g>
        <g>
            <use fill="#000" filter="url(#o)" xlink:href="#p"/>
            <use fill="#FFF" xlink:href="#p"/>
        </g>
        <rect width="40.5" height="18" x="516.499" y="69.415" fill="#96A1FF" rx="9"/>
        <rect width="48" height="18" x="236.882" y="135.415" fill="#96A1FF" rx="9"/>
        <path fill="#FFF" fill-rule="nonzero" d="M530.324 78.605c0 .367-.075.697-.226.99-.15.293-.355.546-.616.76a2.81 2.81 0 0 1-.907.489 3.49 3.49 0 0 1-1.1.17c-.389 0-.756-.06-1.1-.181a2.79 2.79 0 0 1-.902-.512 2.411 2.411 0 0 1-.605-.78c-.147-.302-.22-.632-.22-.99 0-.22.036-.424.11-.611a2.11 2.11 0 0 1 .286-.512 2.423 2.423 0 0 1 .825-.693 1.846 1.846 0 0 1-.693-.594 1.452 1.452 0 0 1-.286-.869c0-.352.079-.662.236-.93.158-.267.363-.493.616-.676a3.023 3.023 0 0 1 1.743-.561c.294 0 .597.046.908.138.312.091.592.229.842.412.249.183.454.409.616.677.161.267.242.577.242.93 0 .153-.026.305-.077.456a1.61 1.61 0 0 1-.215.418 1.904 1.904 0 0 1-.72.6 2.44 2.44 0 0 1 .858.72c.117.157.21.331.28.522.07.19.105.4.105.627zm-1.496-.088c0-.183-.039-.348-.116-.495a1.112 1.112 0 0 0-.308-.368 1.4 1.4 0 0 0-.434-.226 1.623 1.623 0 0 0-1.001.006 1.29 1.29 0 0 0-.424.236 1.19 1.19 0 0 0-.291.369c-.074.143-.11.302-.11.478s.038.336.115.479c.077.143.178.265.303.368.124.103.267.182.429.237a1.524 1.524 0 0 0 1-.006c.162-.059.305-.14.43-.242.124-.103.223-.225.297-.368a1.01 1.01 0 0 0 .11-.468zm-2.442-3.2c0 .153.033.287.099.4a.92.92 0 0 0 .258.287 1.295 1.295 0 0 0 1.127.176c.133-.04.252-.101.358-.182a.981.981 0 0 0 .259-.291.786.786 0 0 0 .099-.402.769.769 0 0 0-.325-.649 1.278 1.278 0 0 0-.786-.242c-.301 0-.558.083-.77.248a.788.788 0 0 0-.32.654zm10.478 2.991c0 .381-.073.737-.22 1.067-.147.33-.348.618-.605.864-.257.245-.56.438-.908.577-.348.14-.724.21-1.127.21-.44 0-.838-.082-1.194-.243a2.462 2.462 0 0 1-.907-.704 3.235 3.235 0 0 1-.572-1.127 5.305 5.305 0 0 1-.198-1.513c0-.711.07-1.34.209-1.886.14-.547.34-1.005.605-1.375.264-.37.583-.651.957-.842a2.72 2.72 0 0 1 1.254-.286c.491 0 .944.106 1.358.32.415.212.765.516 1.05.912l-.846.924a1.864 1.864 0 0 0-1.584-.88 1.4 1.4 0 0 0-1.177.583c-.293.389-.447.939-.462 1.65a1.66 1.66 0 0 1 .654-.627c.283-.154.61-.23.985-.23.381 0 .739.065 1.072.197.334.132.624.315.87.55a2.543 2.543 0 0 1 .786 1.86zm-2.85 1.474c.192 0 .375-.038.55-.115.177-.077.33-.184.463-.32.132-.135.236-.293.313-.472a1.423 1.423 0 0 0-.313-1.579 1.404 1.404 0 0 0-1.012-.418 1.444 1.444 0 0 0-1.023.418 1.404 1.404 0 0 0-.418 1.012 1.476 1.476 0 0 0 .429 1.034c.132.132.284.238.456.32.173.08.358.12.556.12zm7.234 1.243c-.455 0-.85-.1-1.188-.302a2.152 2.152 0 0 1-.792-.82v3.355h-1.474v-8.107h1.287v.99c.213-.337.488-.603.825-.797a2.294 2.294 0 0 1 1.166-.292c.389 0 .748.079 1.078.237.33.157.614.37.853.638.238.267.425.583.56.946.136.363.204.746.204 1.15 0 .417-.062.81-.187 1.176a3.012 3.012 0 0 1-.522.957c-.224.271-.49.484-.798.638a2.23 2.23 0 0 1-1.012.231zm-.495-1.254c.22 0 .424-.048.61-.143a1.48 1.48 0 0 0 .48-.385c.131-.161.234-.348.307-.56a2.01 2.01 0 0 0-.01-1.337 1.68 1.68 0 0 0-.336-.545 1.563 1.563 0 0 0-.506-.363 1.515 1.515 0 0 0-.633-.132 1.512 1.512 0 0 0-.836.275c-.125.088-.236.19-.335.308a1.28 1.28 0 0 0-.226.385v1.353c.132.33.334.603.605.82.271.216.565.324.88.324zm4.505-4.62l1.243 1.804.088.198.11-.198 1.232-1.804h1.518l-2.057 2.893 2.09 2.871h-1.518l-1.276-1.793-.099-.187-.088.187-1.265 1.793h-1.518l2.08-2.87-2.047-2.894h1.507zM249.284 148.312v-1.639h-3.212v-1.309l3.685-4.73h1v4.72h.969v1.32h-.968v1.638h-1.474zm-1.738-2.959h1.903v-2.486l-1.903 2.486zm10.643-1.045c0 .381-.073.737-.22 1.067-.147.33-.348.618-.605.864-.257.245-.56.438-.907.577-.349.14-.725.21-1.128.21-.44 0-.838-.082-1.193-.243a2.462 2.462 0 0 1-.908-.704 3.235 3.235 0 0 1-.572-1.127 5.305 5.305 0 0 1-.198-1.513c0-.711.07-1.34.21-1.886.138-.547.34-1.005.604-1.375.264-.37.583-.651.957-.842a2.72 2.72 0 0 1 1.254-.286c.491 0 .944.106 1.359.32.414.212.764.516 1.05.912l-.847.924a1.864 1.864 0 0 0-1.584-.88 1.4 1.4 0 0 0-1.177.583c-.293.389-.447.939-.462 1.65a1.66 1.66 0 0 1 .655-.627c.282-.154.61-.23.984-.23.381 0 .739.065 1.073.197.333.132.623.315.869.55a2.543 2.543 0 0 1 .786 1.86zm-2.849 1.474c.19 0 .374-.038.55-.115.176-.077.33-.184.462-.32.132-.135.237-.293.314-.472a1.423 1.423 0 0 0-.314-1.579 1.404 1.404 0 0 0-1.012-.418 1.444 1.444 0 0 0-1.023.418 1.404 1.404 0 0 0-.418 1.012 1.476 1.476 0 0 0 .429 1.034c.132.132.284.238.457.32.172.08.357.12.555.12zm8.278-.198v1.331h-4.466v-1.33h1.562v-3.334c-.066.088-.17.178-.313.27a4.317 4.317 0 0 1-.468.258c-.168.08-.343.147-.522.198-.18.051-.34.077-.479.077v-1.375c.132 0 .294-.042.484-.126a4.648 4.648 0 0 0 1.04-.649c.135-.114.222-.204.258-.27h1.507v4.95h1.397zm4.208 1.441c-.454 0-.85-.1-1.188-.302a2.152 2.152 0 0 1-.792-.82v3.355h-1.474v-8.107h1.287v.99c.213-.337.488-.603.825-.797a2.294 2.294 0 0 1 1.166-.292c.39 0 .748.079 1.078.237.33.157.615.37.853.638.238.267.425.583.56.946.137.363.204.746.204 1.15 0 .417-.062.81-.187 1.176a3.012 3.012 0 0 1-.522.957c-.224.271-.49.484-.798.638a2.23 2.23 0 0 1-1.012.231zm-.495-1.254c.22 0 .424-.048.61-.143a1.48 1.48 0 0 0 .48-.385c.131-.161.234-.348.307-.56a2.01 2.01 0 0 0-.01-1.337 1.68 1.68 0 0 0-.336-.545 1.563 1.563 0 0 0-.506-.363 1.515 1.515 0 0 0-.633-.132 1.512 1.512 0 0 0-.836.275c-.124.088-.236.19-.335.308a1.28 1.28 0 0 0-.226.385v1.353c.132.33.334.603.605.82.272.216.565.324.88.324zm4.506-4.62l1.243 1.804.088.198.11-.198 1.232-1.804h1.518l-2.057 2.893 2.09 2.871h-1.518l-1.276-1.793-.1-.187-.087.187-1.265 1.793h-1.518l2.079-2.87-2.046-2.894h1.507z" opacity=".716"/>
    </g>
</svg>
